<svg xmlns="http://www.w3.org/2000/svg" x="0px" y="0px"
width="48" height="48"
viewBox="0 0 172 172"
style=" fill:#000000;"><g fill="none" fill-rule="nonzero" stroke="none" stroke-width="1" stroke-linecap="butt" stroke-linejoin="miter" stroke-miterlimit="10" stroke-dasharray="" stroke-dashoffset="0" font-family="none" font-weight="none" font-size="none" text-anchor="none" style="mix-blend-mode: normal"><path d="M0,172v-172h172v172z" fill="none"></path><g fill="#000000"><path d="M24.08,30.96c-9.46,0 -17.2,7.74 -17.2,17.2v75.68c0,9.46 7.74,17.2 17.2,17.2h123.84c9.46,0 17.2,-7.74 17.2,-17.2v-75.68c0,-9.46 -7.74,-17.2 -17.2,-17.2zM24.08,37.84h123.84c5.73781,0 10.32,4.58219 10.32,10.32v6.88h-144.48v-6.88c0,-5.73781 4.58219,-10.32 10.32,-10.32zM13.76,72.24h144.48v51.6c0,5.73781 -4.58219,10.32 -10.32,10.32h-123.84c-5.73781,0 -10.32,-4.58219 -10.32,-10.32zM30.96,82.56v6.88h55.04v-6.88z"></path></g></g></svg>