<svg xmlns="http://www.w3.org/2000/svg" x="0px" y="0px"
width="30" height="30"
viewBox="0 0 172 172"
style=" fill:#000000;"><g fill="none" fill-rule="nonzero" stroke="none" stroke-width="1" stroke-linecap="butt" stroke-linejoin="miter" stroke-miterlimit="10" stroke-dasharray="" stroke-dashoffset="0" font-family="none" font-weight="none" font-size="none" text-anchor="none" style="mix-blend-mode: normal"><path d="M0,172v-172h172v172z" fill="none"></path><g id="original-icon" fill="#000000"><path d="M73.2075,6.88c-15.60094,0.29563 -25.67906,6.90688 -29.9925,16.8775c-4.11187,9.48688 -3.31906,21.37906 -0.215,33.6475c-1.57219,1.89469 -2.70094,4.50156 -2.2575,8.2775c0.49719,4.16563 1.505,7.14875 3.1175,9.245c0.83313,1.08844 1.98875,1.15563 3.01,1.72c0.59125,3.5475 1.65281,7.13531 3.1175,10.105c0.83313,1.70656 1.76031,3.23844 2.6875,4.515c0.41656,0.57781 1.06156,0.91375 1.505,1.3975c0.65844,5.11969 0.61813,7.51156 -0.215,11.9325c-1.04812,2.71438 -3.60125,4.87781 -7.74,6.9875c-4.20594,2.13656 -9.70187,4.01781 -15.265,6.45c-5.56312,2.43219 -11.27406,5.42875 -15.8025,10.105c-4.52844,4.67625 -7.78031,11.13969 -8.2775,19.565l-0.215,3.655h88.0425c0.1075,0 0.215,0 0.3225,0c7.14875,12.32219 20.45188,20.64 35.69,20.64c22.76313,0 41.28,-18.51687 41.28,-41.28c0,-22.10469 -17.49562,-40.15125 -39.345,-41.1725c-0.37625,-2.96969 -0.18812,-5.76469 0.215,-7.8475c0.3225,-0.38969 0.87344,-0.645 1.1825,-1.075c0.81969,-1.14219 1.65281,-2.4725 2.365,-3.9775c1.22281,-2.56656 2.05594,-5.65719 2.58,-8.7075c0.88688,-0.51062 1.86781,-0.57781 2.58,-1.505c1.46469,-1.90812 2.4725,-4.515 2.9025,-8.17c0.37625,-3.19812 -0.61812,-5.45562 -1.935,-7.2025c1.3975,-4.82406 2.86219,-12.28187 2.15,-19.995c-0.40312,-4.27312 -1.49156,-8.58656 -3.9775,-12.1475c-2.33812,-3.34594 -6.19469,-5.72437 -10.965,-6.5575c-3.25187,-3.74906 -8.43875,-5.4825 -14.5125,-5.4825c-9.41969,0.17469 -16.59531,2.91594 -21.3925,7.6325c-1.08844,-0.40312 -2.23062,-0.83312 -3.44,-1.075c-3.49375,-4.68969 -9.87656,-6.5575 -17.2,-6.5575zM73.2075,13.76c0.04031,0 0.06719,0 0.1075,0c6.665,0.02688 10.92469,2.00219 12.1475,4.1925l0.86,1.505l1.72,0.215c4.21938,0.51063 6.665,2.23063 8.4925,4.8375c1.8275,2.60688 2.83531,6.30219 3.225,10.4275c0.76594,8.25063 -1.1825,17.96594 -2.58,22.2525l-0.86,2.58l2.2575,1.3975c-0.18812,-0.12094 1.30344,0.94063 0.9675,3.7625c-0.38969,3.3325 -1.23625,5.03906 -1.8275,5.805c-0.59125,0.76594 -0.88687,0.645 -0.86,0.645l-2.795,0.215l-0.3225,2.9025c-0.30906,2.92938 -1.45125,6.51719 -2.795,9.3525c-0.67187,1.41094 -1.45125,2.60688 -2.0425,3.44c-0.44344,0.61813 -0.90031,1.03469 -0.86,1.075l-1.3975,0.645l-0.3225,1.6125c-0.95406,4.3 -1.075,9.90344 0.3225,15.8025v0.215l0.1075,0.215c1.1825,3.23844 3.39969,5.65719 6.02,7.6325c-2.15,4.99875 -3.3325,10.45438 -3.3325,16.2325c0,4.8375 0.83313,9.44656 2.365,13.76h-77.2925c0.94063,-4.78375 2.78156,-8.61344 5.59,-11.5025c3.53406,-3.64156 8.31781,-6.31562 13.545,-8.6c5.22719,-2.28437 10.83063,-4.1925 15.695,-6.665c4.86438,-2.4725 9.27188,-5.64375 11.18,-10.8575l0.1075,-0.3225v-0.215c1.04813,-5.375 1.30344,-8.93594 0.43,-15.3725l-0.3225,-1.72l-1.505,-0.86c0.33594,0.17469 -0.33594,-0.3225 -0.9675,-1.1825c-0.63156,-0.86 -1.35719,-2.0425 -2.0425,-3.44c-1.38406,-2.80844 -2.59344,-6.3425 -2.9025,-9.245l-0.3225,-2.9025l-2.795,-0.215c0.02688,0 -0.26875,0.12094 -0.86,-0.645c-0.59125,-0.76594 -1.43781,-2.4725 -1.8275,-5.805c-0.33594,-2.82187 1.15563,-3.88344 0.9675,-3.7625l2.15,-1.29l-0.645,-2.4725c-3.29219,-12.12062 -3.72219,-23.35437 -0.43,-30.96c3.29219,-7.59219 9.86313,-12.40281 23.65,-12.685zM115.24,13.76c0.04031,0 0.06719,0 0.1075,0c5.67063,0.02688 9.17781,1.77375 10.105,3.44l0.86,1.505l1.72,0.215c3.53406,0.43 5.4825,1.81406 6.9875,3.9775c1.505,2.16344 2.4725,5.29438 2.795,8.815c0.65844,7.02781 -1.06156,15.38594 -2.2575,19.0275l-0.86,2.58l2.2575,1.3975c-0.34937,-0.215 0.91375,0.41656 0.645,2.6875c-0.33594,2.82188 -1.06156,4.25969 -1.505,4.8375c-0.44344,0.57781 -0.57781,0.44344 -0.43,0.43l-2.795,0.215l-0.3225,2.9025c-0.25531,2.45906 -1.22281,5.54969 -2.365,7.955c-0.57781,1.20938 -1.22281,2.21719 -1.72,2.9025c-0.49719,0.68531 -1.08844,0.94063 -0.43,0.645l-1.505,0.7525l-0.43,1.6125c-0.63156,2.84875 -0.79281,6.35594 -0.3225,10.105c-12.44312,1.505 -23.16625,8.53281 -29.67,18.5975c-1.31687,-1.16906 -2.27094,-2.39187 -2.795,-3.7625c-0.99437,-4.44781 -0.91375,-8.76125 -0.3225,-11.825c0.44344,-0.48375 1.10188,-0.83312 1.505,-1.3975c0.92719,-1.29 1.86781,-2.795 2.6875,-4.515c1.43781,-3.02344 2.44563,-6.63812 3.01,-10.2125c1.04813,-0.56437 2.16344,-0.61812 3.01,-1.72c1.6125,-2.09625 2.72781,-5.07937 3.225,-9.245c0.43,-3.655 -0.76594,-6.15437 -2.2575,-8.0625c1.6125,-5.49594 3.30563,-14.35125 2.4725,-23.3275c-0.45687,-4.87781 -1.70656,-9.74219 -4.515,-13.76c-0.60469,-0.86 -1.26312,-1.63937 -2.0425,-2.365c3.31906,-2.58 8.07594,-4.25969 15.1575,-4.4075zM130.72,96.32c19.04094,0 34.4,15.35906 34.4,34.4c0,19.04094 -15.35906,34.4 -34.4,34.4c-19.04094,0 -34.4,-15.35906 -34.4,-34.4c0,-19.04094 15.35906,-34.4 34.4,-34.4zM127.28,110.08v17.2h-17.2v6.88h17.2v17.2h6.88v-17.2h17.2v-6.88h-17.2v-17.2z"></path></g></g></svg>