<svg xmlns="http://www.w3.org/2000/svg" x="0px" y="0px"
width="24" height="24"
viewBox="0 0 172 172"
style=" fill:#000000;"><g fill="none" fill-rule="nonzero" stroke="none" stroke-width="1" stroke-linecap="butt" stroke-linejoin="miter" stroke-miterlimit="10" stroke-dasharray="" stroke-dashoffset="0" font-family="none" font-weight="none" font-size="none" text-anchor="none" style="mix-blend-mode: normal"><path d="M0,172v-172h172v172z" fill="none"></path><path d="M86,172c-47.49649,0 -86,-38.50351 -86,-86v0c0,-47.49649 38.50351,-86 86,-86v0c47.49649,0 86,38.50351 86,86v0c0,47.49649 -38.50351,86 -86,86z" fill="#009cde"></path><g fill="#ffffff"><path d="M86,34.4c-12.66573,0 -22.93333,10.2676 -22.93333,22.93333c0,12.66573 10.2676,22.93333 22.93333,22.93333c12.66573,0 22.93333,-10.2676 22.93333,-22.93333c0,-12.66573 -10.2676,-22.93333 -22.93333,-22.93333zM86,97.46667c-17.22293,0 -51.6,8.64587 -51.6,25.8v8.6c0,3.1648 2.56853,5.73333 5.73333,5.73333h91.73333c3.1648,0 5.73333,-2.56853 5.73333,-5.73333v-8.6c0,-17.15413 -34.37707,-25.8 -51.6,-25.8z"></path></g><path d="M86,172c-47.49649,0 -86,-38.50351 -86,-86v0c0,-47.49649 38.50351,-86 86,-86v0c47.49649,0 86,38.50351 86,86v0c0,47.49649 -38.50351,86 -86,86z" fill="none"></path><path d="M86,168.56c-45.59663,0 -82.56,-36.96337 -82.56,-82.56v0c0,-45.59663 36.96337,-82.56 82.56,-82.56v0c45.59663,0 82.56,36.96337 82.56,82.56v0c0,45.59663 -36.96337,82.56 -82.56,82.56z" fill="none"></path></g></svg>